<svg width="48" height="47" viewBox="0 0 48 47" fill="none" xmlns="http://www.w3.org/2000/svg">
<rect x="0.325439" width="46.783" height="46.783" rx="23.3915" fill="#050505" fill-opacity="0.28"/>
<path d="M23.2875 25.2125L21.9 26.6C21.6075 26.8925 21.1425 26.8925 20.8425 26.6075C20.76 26.525 20.6775 26.45 20.595 26.3675C19.8366 25.604 19.1371 24.7842 18.5025 23.915C17.8875 23.06 17.3925 22.205 17.0325 21.3575C16.68 20.5025 16.5 19.685 16.5 18.905C16.5 18.395 16.59 17.9075 16.77 17.4575C16.95 17 17.235 16.58 17.6325 16.205C18.1125 15.7325 18.6375 15.5 19.1925 15.5C19.4025 15.5 19.6125 15.545 19.8 15.635C19.995 15.725 20.1675 15.86 20.3025 16.055L22.0425 18.5075C22.1775 18.695 22.275 18.8675 22.3425 19.0325C22.41 19.19 22.4475 19.3475 22.4475 19.49C22.4475 19.67 22.395 19.85 22.29 20.0225C22.1925 20.195 22.05 20.375 21.87 20.555L21.3 21.1475C21.2175 21.23 21.18 21.3275 21.18 21.4475C21.18 21.5075 21.1875 21.56 21.2025 21.62C21.225 21.68 21.2475 21.725 21.2625 21.77C21.3975 22.0175 21.63 22.34 21.96 22.73C22.2975 23.12 22.6575 23.5175 23.0475 23.915C23.1225 23.99 23.205 24.065 23.28 24.14C23.58 24.4325 23.5875 24.9125 23.2875 25.2125ZM31.4775 27.7475C31.4765 28.0305 31.4125 28.3098 31.29 28.565C31.1625 28.835 30.9975 29.09 30.78 29.33C30.4125 29.735 30.0075 30.0275 29.55 30.215C29.5425 30.215 29.535 30.2225 29.5275 30.2225C29.085 30.4025 28.605 30.5 28.0875 30.5C27.3225 30.5 26.505 30.32 25.6425 29.9525C24.78 29.585 23.9175 29.09 23.0625 28.4675C22.77 28.25 22.4775 28.0325 22.2 27.8L24.6525 25.3475C24.8625 25.505 25.05 25.625 25.2075 25.7075C25.245 25.7225 25.29 25.745 25.3425 25.7675C25.4025 25.79 25.4625 25.7975 25.53 25.7975C25.6575 25.7975 25.755 25.7525 25.8375 25.67L26.4075 25.1075C26.595 24.92 26.775 24.7775 26.9475 24.6875C27.12 24.5825 27.2925 24.53 27.48 24.53C27.6225 24.53 27.7725 24.56 27.9375 24.6275C28.1025 24.695 28.275 24.7925 28.4625 24.92L30.945 26.6825C31.14 26.8175 31.275 26.975 31.3575 27.1625C31.4325 27.35 31.4775 27.5375 31.4775 27.7475Z" fill="white"/>
</svg>
