<svg width="117" height="117" viewBox="0 0 117 117" fill="none" xmlns="http://www.w3.org/2000/svg">
<rect width="117" height="117" rx="58.5" fill="#161616" fill-opacity="0.21"/>
<path d="M58.5 34.1667C61.7268 34.1667 64.8214 35.4485 67.1031 37.7302C69.3848 40.0119 70.6666 43.1066 70.6666 46.3334C70.6666 49.5602 69.3848 52.6548 67.1031 54.9365C64.8214 57.2182 61.7268 58.5 58.5 58.5C55.2732 58.5 52.1785 57.2182 49.8968 54.9365C47.6151 52.6548 46.3333 49.5602 46.3333 46.3334C46.3333 43.1066 47.6151 40.0119 49.8968 37.7302C52.1785 35.4485 55.2732 34.1667 58.5 34.1667ZM58.5 82.8334C58.5 82.8334 82.8333 82.8334 82.8333 76.75C82.8333 69.45 70.9708 61.5417 58.5 61.5417C46.0291 61.5417 34.1666 69.45 34.1666 76.75C34.1666 82.8334 58.5 82.8334 58.5 82.8334Z" fill="white"/>
</svg>
