<svg width="48" height="47" viewBox="0 0 48 47" fill="none" xmlns="http://www.w3.org/2000/svg">
<rect x="0.891602" width="46.783" height="46.783" rx="23.3915" fill="#050505" fill-opacity="0.28"/>
<path d="M27.75 16.625H20.25C18 16.625 16.5 17.75 16.5 20.375V25.625C16.5 28.25 18 29.375 20.25 29.375H27.75C30 29.375 31.5 28.25 31.5 25.625V20.375C31.5 17.75 30 16.625 27.75 16.625ZM28.1025 21.1925L25.755 23.0675C25.26 23.465 24.63 23.66 24 23.66C23.37 23.66 22.7325 23.465 22.245 23.0675L19.8975 21.1925C19.7828 21.0972 19.7093 20.9613 19.6925 20.8131C19.6757 20.6649 19.7169 20.516 19.8075 20.3975C20.0025 20.1575 20.355 20.1125 20.595 20.3075L22.9425 22.1825C23.5125 22.64 24.48 22.64 25.05 22.1825L27.3975 20.3075C27.6375 20.1125 27.9975 20.15 28.185 20.3975C28.38 20.6375 28.3425 20.9975 28.1025 21.1925Z" fill="white"/>
</svg>
