<svg width="39" height="39" viewBox="0 0 39 39" fill="none" xmlns="http://www.w3.org/2000/svg">
<rect width="39" height="39" rx="19.5" fill="#050505" fill-opacity="0.28"/>
<g clip-path="url(#clip0_1052_5903)">
<path d="M27.3125 11.4219H12.6875C12.3557 11.4186 12.0361 11.547 11.7988 11.779C11.5615 12.011 11.426 12.3276 11.4219 12.6594V27.3435C11.4267 27.6748 11.5626 27.9908 11.7998 28.2222C12.037 28.4536 12.3561 28.5816 12.6875 28.5782H27.3125C27.6444 28.5808 27.9638 28.452 28.2009 28.2198C28.4381 27.9877 28.5737 27.6711 28.5781 27.3393V12.6552C28.5722 12.3244 28.4359 12.0092 28.1989 11.7783C27.962 11.5474 27.6434 11.4193 27.3125 11.4219ZM16.5083 26.0469H13.9616V17.8527H16.5083V26.0469ZM15.2427 16.7362C14.9506 16.7364 14.6649 16.6501 14.4219 16.488C14.1789 16.3259 13.9895 16.0954 13.8775 15.8256C13.7655 15.5558 13.7361 15.2589 13.7929 14.9724C13.8497 14.6859 13.9902 14.4226 14.1967 14.216C14.4031 14.0094 14.6662 13.8686 14.9527 13.8115C15.2391 13.7544 15.5361 13.7836 15.806 13.8953C16.0759 14.007 16.3066 14.1963 16.4689 14.4391C16.6312 14.682 16.7178 14.9675 16.7178 15.2596C16.7174 15.4537 16.6788 15.6459 16.6041 15.8251C16.5294 16.0043 16.42 16.167 16.2824 16.3039C16.1447 16.4407 15.9814 16.5491 15.8018 16.6228C15.6221 16.6965 15.4298 16.7341 15.2356 16.7333L15.2427 16.7362ZM26.0469 26.0469H23.5002V22.0602C23.5002 21.111 23.4833 19.889 22.1769 19.889C20.8705 19.889 20.6483 20.924 20.6483 21.9983V26.0469H18.1058V17.8527H20.547V18.9777H20.5808C20.9211 18.3337 21.7508 17.6544 22.9897 17.6544C25.5688 17.6488 26.0469 19.3462 26.0469 21.5469V26.0469Z" fill="white"/>
</g>
<defs>
<clipPath id="clip0_1052_5903">
<rect width="18" height="18" fill="white" transform="translate(11 11)"/>
</clipPath>
</defs>
</svg>
