<svg width="47" height="47" viewBox="0 0 47 47" fill="none" xmlns="http://www.w3.org/2000/svg">
<rect x="0.108521" width="46.783" height="46.783" rx="23.3915" fill="#050505" fill-opacity="0.28"/>
<path d="M27.75 15.8203H20.25C18 15.8203 16.5 17.3203 16.5 19.5703V24.0703C16.5 26.3203 18 27.8203 20.25 27.8203H23.25L26.5875 30.0403C26.7001 30.1154 26.831 30.1585 26.9662 30.165C27.1015 30.1715 27.2359 30.1412 27.3552 30.0773C27.4746 30.0134 27.5743 29.9183 27.6438 29.8022C27.7134 29.686 27.7501 29.5532 27.75 29.4178V27.8203C30 27.8203 31.5 26.3203 31.5 24.0703V19.5703C31.5 17.3203 30 15.8203 27.75 15.8203ZM26.625 22.4353H21.375C21.0675 22.4353 20.8125 22.1803 20.8125 21.8728C20.8125 21.5653 21.0675 21.3103 21.375 21.3103H26.625C26.9325 21.3103 27.1875 21.5653 27.1875 21.8728C27.1875 22.1803 26.9325 22.4353 26.625 22.4353Z" fill="white"/>
</svg>
