<svg width="39" height="39" viewBox="0 0 39 39" fill="none" xmlns="http://www.w3.org/2000/svg">
<rect width="39" height="39" rx="19.5" fill="#050505" fill-opacity="0.28"/>
<path d="M26.4687 22.8929L20 26.6651L13.5312 22.8929C13.4031 22.8291 13.2556 22.8165 13.1186 22.8577C12.9816 22.8989 12.8654 22.9908 12.7937 23.1146C12.722 23.2384 12.7002 23.3849 12.7327 23.5242C12.7653 23.6636 12.8496 23.7853 12.9687 23.8646L19.7187 27.8021C19.8047 27.8522 19.9025 27.8787 20.0021 27.8787C20.1017 27.8787 20.1994 27.8522 20.2854 27.8021L27.0354 23.8646C27.1003 23.8279 27.1572 23.7787 27.2028 23.7199C27.2485 23.661 27.282 23.5937 27.3015 23.5218C27.3209 23.4499 27.3259 23.3748 27.3161 23.301C27.3063 23.2271 27.2819 23.156 27.2444 23.0916C27.2068 23.0273 27.1569 22.971 27.0975 22.9261C27.038 22.8812 26.9702 22.8486 26.8981 22.8301C26.8259 22.8116 26.7508 22.8076 26.6771 22.8184C26.6034 22.8292 26.5326 22.8545 26.4687 22.8929Z" fill="white"/>
<path d="M26.4687 19.5179L20 23.2901L13.5312 19.5179C13.4031 19.4541 13.2556 19.4415 13.1186 19.4827C12.9816 19.5239 12.8654 19.6158 12.7937 19.7396C12.722 19.8634 12.7002 20.0099 12.7327 20.1492C12.7653 20.2886 12.8496 20.4103 12.9687 20.4896L19.7187 24.4271C19.8047 24.4772 19.9025 24.5037 20.0021 24.5037C20.1017 24.5037 20.1994 24.4772 20.2854 24.4271L27.0354 20.4896C27.1003 20.4529 27.1572 20.4037 27.2028 20.3449C27.2485 20.286 27.282 20.2187 27.3015 20.1468C27.3209 20.0749 27.3259 19.9998 27.3161 19.926C27.3063 19.8521 27.2819 19.781 27.2444 19.7166C27.2068 19.6523 27.1569 19.596 27.0975 19.5511C27.038 19.5062 26.9702 19.4736 26.8981 19.4551C26.8259 19.4366 26.7508 19.4326 26.6771 19.4434C26.6034 19.4542 26.5326 19.4795 26.4687 19.5179Z" fill="white"/>
<path d="M12.9687 17.1108L19.7187 21.0483C19.8048 21.0985 19.9025 21.1249 20.0021 21.1249C20.1017 21.1249 20.1995 21.0985 20.2855 21.0483L27.0355 17.1108C27.1204 17.0613 27.1908 16.9903 27.2398 16.9051C27.2887 16.8198 27.3145 16.7233 27.3145 16.6249C27.3145 16.5266 27.2887 16.43 27.2398 16.3448C27.1908 16.2596 27.1204 16.1886 27.0355 16.1391L20.2855 12.2016C20.1995 12.1514 20.1017 12.125 20.0021 12.125C19.9025 12.125 19.8048 12.1514 19.7187 12.2016L12.9687 16.1391C12.8838 16.1886 12.8134 16.2596 12.7644 16.3448C12.7155 16.43 12.6897 16.5266 12.6897 16.6249C12.6897 16.7233 12.7155 16.8198 12.7644 16.9051C12.8134 16.9903 12.8838 17.0613 12.9687 17.1108Z" fill="white"/>
</svg>
